<svg width="100" height="100" viewBox="0 0 100 100" fill="none" xmlns="http://www.w3.org/2000/svg">
<g opacity="0.9">
<path d="M91.9093 13.0594L50 20.1037L9.08353 13.0594C8.08342 12.89 6.02787 13.1547 5.24784 13.7676C4.4678 14.3804 4.00135 16.2513 4 17.2075V75.6827C3.99917 76.4516 4.28637 78.1305 4.81115 78.72C5.33593 79.3095 6.0647 79.7061 6.86942 79.8401L49.3943 86.9498C49.795 87.0167 50.205 87.0167 50.6057 86.9498L93.1306 79.8401C93.9353 79.7061 94.6641 79.3095 95.1888 78.72C95.7136 78.1305 96.0008 77.3859 96 76.6169V16.2732C96.0005 15.7953 95.8897 15.3231 95.6753 14.8898C95.4609 14.4565 95.1482 14.0727 94.7592 13.7654C94.3701 13.4581 93.9142 13.2348 93.4236 13.1112C92.9329 12.9876 92.4194 12.9667 91.9193 13.05L91.9093 13.0594ZM46.5249 79.8214L10.9501 73.8795V20.1784L46.5249 26.1203V79.8214ZM89.0499 73.8702L53.4751 79.8214V26.1203L89.0499 20.1691V73.8702Z" fill="#4CC9F0"/>
<path d="M16.1331 39.8909L40.4983 43.9643C40.9533 44.0527 41.4226 44.0543 41.8784 43.9691C42.3341 43.8839 42.7671 43.7136 43.1516 43.4682C43.5362 43.2227 43.8645 42.9073 44.1172 42.5404C44.37 42.1735 44.5419 41.7626 44.6229 41.3321C44.7039 40.9015 44.6924 40.4601 44.5889 40.0338C44.4855 39.6076 44.2922 39.2052 44.0206 38.8505C43.7489 38.4957 43.4045 38.1958 43.0075 37.9686C42.6106 37.7413 42.1692 37.5912 41.7096 37.5272L17.3444 33.4445C16.8893 33.3561 16.42 33.3544 15.9643 33.4397C15.5086 33.5249 15.0756 33.6952 14.691 33.9406C14.3065 34.186 13.9781 34.5015 13.7254 34.8684C13.4727 35.2353 13.3007 35.6462 13.2197 36.0767C13.1387 36.5073 13.1503 36.9487 13.2537 37.3749C13.3572 37.8012 13.5505 38.2036 13.8221 38.5583C14.0937 38.9131 14.4382 39.2129 14.8351 39.4402C15.2321 39.6675 15.6734 39.8176 16.1331 39.8816V39.8909Z" fill="#4CC9F0"/>
<path d="M16.1331 50.1673L40.4983 54.2406C40.9533 54.3291 41.4226 54.3307 41.8784 54.2455C42.3341 54.1603 42.7671 53.9899 43.1516 53.7445C43.5362 53.4991 43.8645 53.1836 44.1172 52.8167C44.37 52.4498 44.5419 52.039 44.6229 51.6084C44.7039 51.1779 44.6924 50.7365 44.5889 50.3102C44.4855 49.884 44.2922 49.4816 44.0206 49.1268C43.7489 48.7721 43.4045 48.4722 43.0075 48.2449C42.6106 48.0176 42.1692 47.8676 41.7096 47.8036L17.3444 43.7209C16.8893 43.6325 16.42 43.6308 15.9643 43.716C15.5086 43.8012 15.0756 43.9716 14.691 44.217C14.3065 44.4624 13.9781 44.7779 13.7254 45.1448C13.4727 45.5117 13.3007 45.9226 13.2197 46.3531C13.1387 46.7836 13.1503 47.2251 13.2537 47.6513C13.3572 48.0776 13.5505 48.48 13.8221 48.8347C14.0937 49.1894 14.4382 49.4893 14.8351 49.7166C15.2321 49.9439 15.6734 50.0939 16.1331 50.1579V50.1673Z" fill="#4CC9F0"/>
<path d="M16.1331 60.4446L40.4983 64.518C40.9533 64.6064 41.4226 64.6081 41.8784 64.5228C42.3341 64.4376 42.7671 64.2673 43.1516 64.0219C43.5362 63.7765 43.8645 63.461 44.1172 63.0941C44.37 62.7272 44.5419 62.3163 44.6229 61.8858C44.7039 61.4552 44.6924 61.0138 44.5889 60.5876C44.4855 60.1613 44.2922 59.7589 44.0206 59.4042C43.7489 59.0494 43.4045 58.7496 43.0075 58.5223C42.6106 58.295 42.1692 58.1449 41.7096 58.0809L17.3444 53.9982C16.8893 53.9098 16.42 53.9082 15.9643 53.9934C15.5086 54.0786 15.0756 54.2489 14.691 54.4943C14.3065 54.7398 13.9781 55.0552 13.7254 55.4221C13.4727 55.789 13.3007 56.1999 13.2197 56.6304C13.1387 57.061 13.1503 57.5024 13.2537 57.9287C13.3572 58.3549 13.5505 58.7573 13.8221 59.112C14.0937 59.4668 14.4382 59.7667 14.8351 59.9939C15.2321 60.2212 15.6734 60.3713 16.1331 60.4353V60.4446Z" fill="#4CC9F0"/>
</g>
</svg>
