<svg width="100" height="100" viewBox="0 0 100 100" fill="none" xmlns="http://www.w3.org/2000/svg">
<path d="M29.5455 87H71.8182C76.3291 87 80 83.4427 80 79.0714V20.9286C80 16.5573 76.3291 13 71.8182 13H28.1818C23.6709 13 20 16.5573 20 20.9286V77.8029C20 77.8029 20 77.8055 20 77.8081C20 77.8134 20 77.8161 20 77.8214C20.0382 82.8824 24.32 87 29.5455 87ZM74.5455 79.0714C74.5455 80.5276 73.3236 81.7143 71.8182 81.7143H29.5455C27.3064 81.7143 25.4709 79.9515 25.4545 77.75C25.4545 76.7008 25.8882 75.6754 26.6491 74.9406C27.4018 74.2086 28.4573 73.7857 29.5455 73.7857H71.8182C72.7755 73.7857 73.6945 73.6245 74.5455 73.3338V79.0714ZM28.1818 18.2857H71.8182C73.3236 18.2857 74.5455 19.4724 74.5455 20.9286V65.8571C74.5455 67.3134 73.3236 68.5 71.8182 68.5H29.5455C28.1191 68.5 26.7282 68.8462 25.4545 69.4303V20.9286C25.4545 19.4724 26.6764 18.2857 28.1818 18.2857Z" fill="#4CC9F0"/>
<path d="M37.4361 42.9614H61.537C63.3899 42.9614 64.8876 41.621 64.8876 39.9695C64.8876 38.3179 63.3899 36.9775 61.537 36.9775H37.4361C35.5832 36.9775 34.0854 38.3179 34.0854 39.9695C34.0854 41.621 35.5832 42.9614 37.4361 42.9614Z" fill="#4CC9F0"/>
<path d="M37.3186 32.6469H61.6544C63.4424 32.6469 64.8876 31.3065 64.8876 29.655C64.8876 28.0035 63.4424 26.6631 61.6544 26.6631H37.3186C35.5307 26.6631 34.0854 28.0035 34.0854 29.655C34.0854 31.3065 35.5307 32.6469 37.3186 32.6469Z" fill="#4CC9F0"/>
</svg>
