<svg width="800" height="800" viewBox="0 0 800 800" fill="none" xmlns="http://www.w3.org/2000/svg">
<path d="M133.334 666.667H364.777M364.777 666.667H368.557M364.777 666.667C365.407 666.673 366.037 666.673 366.667 666.673C367.297 666.673 367.927 666.673 368.557 666.667M364.777 666.667C236.781 665.65 133.334 561.56 133.334 433.327V297.428C133.334 280.435 147.102 266.667 164.096 266.667H569.224C586.217 266.667 600.001 280.435 600.001 297.428V300M368.557 666.667H600.001M368.557 666.667C496.554 665.65 600.001 561.56 600.001 433.327M600.001 300H650.001C696.024 300 733.334 337.31 733.334 383.333C733.334 429.357 696.024 466.667 650.001 466.667H600.001V433.327M600.001 300V433.327M500.001 100L466.667 166.667M400.001 100L366.667 166.667M300.001 100L266.667 166.667" stroke="white" stroke-width="66.6667" stroke-linecap="round" stroke-linejoin="round"/>
</svg>
