<svg id="visual" viewBox="0 0 900 450" width="900" height="450" xmlns="http://www.w3.org/2000/svg" xmlns:xlink="http://www.w3.org/1999/xlink" version="1.1"><rect x="0" y="0" width="900" height="450" fill="#0d1321"></rect><path d="M0 378L18.8 376C37.7 374 75.3 370 112.8 370.5C150.3 371 187.7 376 225.2 371.5C262.7 367 300.3 353 337.8 352.2C375.3 351.3 412.7 363.7 450.2 364C487.7 364.3 525.3 352.7 562.8 354.3C600.3 356 637.7 371 675.2 376.7C712.7 382.3 750.3 378.7 787.8 373.8C825.3 369 862.7 363 881.3 360L900 357L900 451L881.3 451C862.7 451 825.3 451 787.8 451C750.3 451 712.7 451 675.2 451C637.7 451 600.3 451 562.8 451C525.3 451 487.7 451 450.2 451C412.7 451 375.3 451 337.8 451C300.3 451 262.7 451 225.2 451C187.7 451 150.3 451 112.8 451C75.3 451 37.7 451 18.8 451L0 451Z" fill="#f72585"></path><path d="M0 370L18.8 375.3C37.7 380.7 75.3 391.3 112.8 391.7C150.3 392 187.7 382 225.2 382.5C262.7 383 300.3 394 337.8 399C375.3 404 412.7 403 450.2 403C487.7 403 525.3 404 562.8 404.2C600.3 404.3 637.7 403.7 675.2 400.2C712.7 396.7 750.3 390.3 787.8 390.8C825.3 391.3 862.7 398.7 881.3 402.3L900 406L900 451L881.3 451C862.7 451 825.3 451 787.8 451C750.3 451 712.7 451 675.2 451C637.7 451 600.3 451 562.8 451C525.3 451 487.7 451 450.2 451C412.7 451 375.3 451 337.8 451C300.3 451 262.7 451 225.2 451C187.7 451 150.3 451 112.8 451C75.3 451 37.7 451 18.8 451L0 451Z" fill="#ba009f"></path><path d="M0 423L18.8 423.5C37.7 424 75.3 425 112.8 424.8C150.3 424.7 187.7 423.3 225.2 421.5C262.7 419.7 300.3 417.3 337.8 413.7C375.3 410 412.7 405 450.2 407.3C487.7 409.7 525.3 419.3 562.8 420C600.3 420.7 637.7 412.3 675.2 412.2C712.7 412 750.3 420 787.8 423.2C825.3 426.3 862.7 424.7 881.3 423.8L900 423L900 451L881.3 451C862.7 451 825.3 451 787.8 451C750.3 451 712.7 451 675.2 451C637.7 451 600.3 451 562.8 451C525.3 451 487.7 451 450.2 451C412.7 451 375.3 451 337.8 451C300.3 451 262.7 451 225.2 451C187.7 451 150.3 451 112.8 451C75.3 451 37.7 451 18.8 451L0 451Z" fill="#4000b8"></path></svg>