<svg id="visual" viewBox="0 0 900 600" width="900" height="600" xmlns="http://www.w3.org/2000/svg" xmlns:xlink="http://www.w3.org/1999/xlink" version="1.1"><rect x="0" y="0" width="900" height="600" fill="#0d1321"></rect><path d="M0 384L18.8 394.8C37.7 405.7 75.3 427.3 112.8 428.5C150.3 429.7 187.7 410.3 225.2 395.8C262.7 381.3 300.3 371.7 337.8 375.8C375.3 380 412.7 398 450.2 397.2C487.7 396.3 525.3 376.7 562.8 379.7C600.3 382.7 637.7 408.3 675.2 419C712.7 429.7 750.3 425.3 787.8 423C825.3 420.7 862.7 420.3 881.3 420.2L900 420L900 601L881.3 601C862.7 601 825.3 601 787.8 601C750.3 601 712.7 601 675.2 601C637.7 601 600.3 601 562.8 601C525.3 601 487.7 601 450.2 601C412.7 601 375.3 601 337.8 601C300.3 601 262.7 601 225.2 601C187.7 601 150.3 601 112.8 601C75.3 601 37.7 601 18.8 601L0 601Z" fill="#ff55a1"></path><path d="M0 461L18.8 462C37.7 463 75.3 465 112.8 467C150.3 469 187.7 471 225.2 478.8C262.7 486.7 300.3 500.3 337.8 492.2C375.3 484 412.7 454 450.2 445.2C487.7 436.3 525.3 448.7 562.8 463.7C600.3 478.7 637.7 496.3 675.2 495.3C712.7 494.3 750.3 474.7 787.8 465.2C825.3 455.7 862.7 456.3 881.3 456.7L900 457L900 601L881.3 601C862.7 601 825.3 601 787.8 601C750.3 601 712.7 601 675.2 601C637.7 601 600.3 601 562.8 601C525.3 601 487.7 601 450.2 601C412.7 601 375.3 601 337.8 601C300.3 601 262.7 601 225.2 601C187.7 601 150.3 601 112.8 601C75.3 601 37.7 601 18.8 601L0 601Z" fill="#c817ab"></path><path d="M0 550L18.8 544C37.7 538 75.3 526 112.8 523.8C150.3 521.7 187.7 529.3 225.2 528.2C262.7 527 300.3 517 337.8 511.7C375.3 506.3 412.7 505.7 450.2 508C487.7 510.3 525.3 515.7 562.8 513C600.3 510.3 637.7 499.7 675.2 505.5C712.7 511.3 750.3 533.7 787.8 539.7C825.3 545.7 862.7 535.3 881.3 530.2L900 525L900 601L881.3 601C862.7 601 825.3 601 787.8 601C750.3 601 712.7 601 675.2 601C637.7 601 600.3 601 562.8 601C525.3 601 487.7 601 450.2 601C412.7 601 375.3 601 337.8 601C300.3 601 262.7 601 225.2 601C187.7 601 150.3 601 112.8 601C75.3 601 37.7 601 18.8 601L0 601Z" fill="#6f00b8"></path></svg>