    <svg xmlns="http://www.w3.org/2000/svg" version="1.1" viewBox="0 0 800 800"><defs><linearGradient x1="50%" y1="0%" x2="50%" y2="100%" id="uundulate-grad"><stop stop-color="hsl(37, 99%, 67%)" stop-opacity="1" offset="45%"></stop><stop stop-color="hsl(316, 73%, 52%)" stop-opacity="1" offset="100%"></stop></linearGradient></defs><g stroke-width="1.6" stroke="url(#uundulate-grad)" fill="none"><path d="M635.6556772287902 298.9226157818856C656.6905377321848 391.6900258865569 709.6651608990708 540.7463888688774 640.836368732622 606.4034913242351C572.0075765661732 672.0605937795929 412.43039048944615 671.6602317647918 305.2774748298352 614.076707567603C198.12455917022442 556.4931833704142 112.51011115129995 421.9723628470722 126.5023735664904 330.0025751777281C140.4946359816808 238.03278750838388 286.3222792665342 207.80561266223356 372.4403344227501 172.62172675475102C458.55838957896583 137.43784084726855 485.0325085650686 134.80723760782593 539.869038316327 161.11992282181228C594.7055680675853 187.43260803579864 614.6208167253953 206.15520567721427 635.6556772287902 298.9226157818856C656.6905377321848 391.6900258865569 709.6651608990708 540.7463888688774 640.836368732622 606.4034913242351 "></path><path d="M624.9440846669879 303.5170145940016C645.022815147501 392.0677242393697 695.5895008977103 534.3487979952209 629.8892901933729 597.021486702608C564.1890794890353 659.694175409995 411.8654018703413 659.3120116685939 309.58307328616735 604.345920389459C207.30074470199332 549.3798291103244 125.57786250211092 420.97359133804343 138.93411298933813 333.18424856276033C152.29036347656535 245.39490578747723 291.4894775211982 216.5416934343337 373.6930756248587 182.95707506810044C455.8966737285192 149.37245670186718 481.16742366979906 146.86142633694465 533.5113838869095 171.97808040484068C585.8553441040197 197.09473447273677 604.8653541864746 214.96630494863354 624.9440846669879 303.5170145940016C645.022815147501 392.0677242393697 695.5895008977103 534.3487979952209 629.8892901933729 597.021486702608 "></path><path d="M614.2324615876075 308.1114286649066C633.355062045239 392.4454378509714 681.5138103787717 527.9512223803536 618.9421811365455 587.6394973397698C556.3705518943194 647.3277722991861 411.30038273365835 646.963806831185 313.8886412249213 594.6151484701043C216.4768997161841 542.2664901090236 138.6455833353437 419.9748350878036 151.36582189460773 336.36593720658163C164.08606045387177 252.75703932535964 296.6566452582839 225.27778946522295 374.9457863093892 193.29243864023886C453.23492736049457 161.30708781525482 477.3023082569515 158.91563032485243 527.1536989399137 182.8362532466582C577.0050896228759 206.75687616846398 595.1098611299759 223.7774194788418 614.2324615876075 308.1114286649066C633.355062045239 392.4454378509714 681.5138103787717 527.9512223803536 618.9421811365455 587.6394973397698 "></path><path d="M603.520807990649 312.7058732533898C621.687278425399 392.8231819801514 667.4380893422551 521.5536772830644 607.9950415621402 578.2575384945098C548.5519937820253 634.9613997059553 410.7353330793974 634.6156325113543 318.19417864609704 584.8844070683276C225.65302421279682 535.1531816253009 151.71327365099842 418.97610935514194 163.7975002822992 339.54765636798106C175.88172691360006 260.1192033808202 301.8237824777916 234.01391601369033 376.19846647634165 203.62783272995546C450.5731504748917 173.24174944622058 473.4371623265258 170.96986483033834 520.7959834753399 193.6944566060538C568.1548046241539 216.41904838176924 585.3543375558991 232.58856452662826 603.520807990649 312.7058732533898C621.687278425399 392.8231819801514 667.4380893422551 521.5536772830644 607.9950415621402 578.2575384945098 "></path><path d="M592.8092001700577 317.30028732429486C610.0195405819261 393.20089559175324 653.3624140821055 515.1561016681972 597.047947764102 568.8755491316717C540.7334814460984 622.5949965951463 410.1703292015035 622.2674276739455 322.4997618436401 575.1536351489727C234.82919448577667 528.0398426240001 164.78100974302026 417.97735310490214 176.22922444635788 342.72934501180237C187.67743914969554 267.4813369187026 306.9909654736665 242.75001204457953 377.4511924196612 213.96319630209388C447.911419365656 185.17638055960822 469.5720621724673 183.02406881824606 514.4383137871332 204.55262944787125C559.3045654017992 226.08119007749644 575.5988597581893 241.39967905683653 592.8092001700577 317.30028732429486C610.0195405819261 393.20089559175324 653.3624140821055 515.1561016681972 597.047947764102 568.8755491316717 "></path><path d="M582.0976228670445 321.89473191277807C598.3518332560313 393.5786397209331 639.2867693395342 508.758556570908 586.1008844836418 559.4935902864117C532.9149996277497 610.2286240019155 409.6053558411878 609.9192533541146 326.80537555876117 565.422893747196C244.00539527633464 520.9265341402775 177.8487763526203 416.97862737224045 188.66097912799472 345.9110641732018C199.47318190336915 274.84350097416313 312.15817898711947 251.48613859304692 378.703948880559 224.29859039181048C445.24971877399844 197.11104219057398 465.70699253598696 195.07830332373197 508.0806746165048 215.4108328072669C550.4543566970226 235.74336229080177 565.8434124780576 250.21082410462293 582.0976228670445 321.89473191277807C598.3518332560313 393.5786397209331 639.2867693395342 508.758556570908 586.1008844836418 559.4935902864117 "></path><path d="M571.3859540112969 326.4891765012612C586.6840343774022 393.95638385011307 625.2110330442283 502.3610114736189 575.1537296504474 550.1116314411518C525.0964262566665 597.8622514086848 409.04029092813767 597.5710790342839 331.1108977211479 555.6921523454193C253.18150451415823 513.8132256565548 190.9164514094859 415.97990163957877 201.09264225689714 349.0927833346012C211.26883310430833 282.2056650296237 317.32530094783806 260.2222651415143 379.9566137887223 234.63398448152702C442.5879266296065 209.0457038215398 461.8418313467722 207.13253782921788 501.722943893142 226.2690361666625C541.6040564395116 245.4055345041071 556.0878736451916 259.0219691524094 571.3859540112969 326.4891765012612C586.6840343774022 393.95638385011307 625.2110330442283 502.3610114736189 575.1537296504474 550.1116314411518 "></path><path d="M560.6743156731275 331.0835905721663C575.0162660163512 394.3340974617149 611.1353272665008 495.9634358587516 564.206605334831 540.7296420783136C517.2778834031615 585.4958482978759 408.47525653266564 585.2228741968752 335.41645040111285 545.9613804260646C262.35764426955996 506.699886655254 203.98415698392967 414.98114538933896 213.52433590337768 352.2744719784225C223.06451482282569 289.5677985675061 322.49245342613483 268.95836117240356 381.2093092144638 244.9693480536655C439.9261650027927 220.98033493492744 457.9767006751356 219.18674181712566 495.3652436873572 237.12720900847995C532.7537866995788 255.0676761998343 546.3323653299037 267.8330836826177 560.6743156731275 331.0835905721663C575.0162660163512 394.3340974617149 611.1353272665008 495.9634358587516 564.206605334831 540.7296420783136 "></path><path d="M549.9627078525361 335.67800464307135C563.3485281728782 394.71181107331677 597.0596520063511 489.56586024388423 553.2595115367928 531.3476527154755C509.45937106723454 573.129445187067 407.91025265477185 572.8746693594662 339.7220335986558 536.2306085067097C271.53381454253986 499.5865476539532 217.0518930759515 413.98238913909927 225.95606006743634 355.4561606222439C234.86022705892117 296.9299321053885 327.65963642200967 277.6944572032928 382.46203515778336 255.30471162580392C437.2644338935571 232.91496604831508 454.111600521077 231.2409458050334 489.0075739991505 247.98538185029747C523.903547477224 264.7298178955615 536.5768875321941 276.644198212826 549.9627078525361 335.67800464307135C563.3485281728782 394.71181107331677 597.0596520063511 489.56586024388423 553.2595115367928 531.3476527154755 "></path><path d="M539.2510847731558 340.27244923155456C551.6807750706163 395.08955520249674 582.9839614874126 483.1683151465951 542.3124024799656 521.9656938702155C501.64084347251855 560.7630725938361 407.3452335180889 560.5264950396354 344.02760153740974 526.499867104933C280.70996955673064 492.4732391702305 230.11961390918435 412.9836634064376 238.38776897270594 358.6378797836433C246.6559240362276 304.29209616084904 332.8268041590955 286.43058375176014 383.71474584231396 265.6401057155205C434.60268752553236 244.84962767928084 450.2464851082294 243.2951803105193 482.6498890521548 258.84358520969306C515.0532929960802 274.3919901088668 526.8213944756953 285.45534326061244 539.2510847731558 340.27244923155456C551.6807750706163 395.08955520249674 582.9839614874126 483.1683151465951 542.3124024799656 521.9656938702155 "></path><path d="M528.5394616937754 344.8668633024596C540.0130219683543 395.4672688140985 568.908270968474 476.7707395317278 531.3652934231384 512.5837045073775C493.82231587780257 548.3966694830273 406.780214381406 548.1782902022267 348.3331694761637 516.7690951855782C289.8861245709214 485.3599001689298 243.18733474241714 411.9849071561978 250.8194778779756 361.8195684274646C258.451621013534 311.65422969873146 337.9939718961813 295.1666797826494 384.96745652684444 275.97546928765894C431.9409411575076 256.7842587926685 446.38136969538186 255.34938429842708 476.29220410515916 269.7017580515105C506.20303851493645 284.054131804594 517.0659014191965 294.2664577908207 528.5394616937754 344.8668633024596C540.0130219683543 395.4672688140985 568.908270968474 476.7707395317278 531.3652934231384 512.5837045073775 "></path><path d="M517.8278386143951 349.4612773733647C528.3452688660924 395.8449824257003 554.8325804495354 470.37316391686056 520.4181843663109 503.20171514453943C486.0037882830866 536.0302663722183 406.2151952447231 535.8300853648177 352.6387374149176 507.0383232662234C299.0622795851122 478.2465611676289 256.25505557565 410.98615090595797 263.2511867832452 365.0012570712859C270.24731799084043 319.0163632366138 343.1611396332671 303.90277581353865 386.22016721137504 286.3108328597974C429.2791947894829 268.7188899060562 442.5162542825343 267.40358828633487 469.93451915816354 280.55993089332804C497.35278403379266 293.71627350032117 507.3104083626977 303.07757232102904 517.8278386143951 349.4612773733647C528.3452688660924 395.8449824257003 554.8325804495354 470.37316391686056 520.4181843663109 503.20171514453943 "></path><path d="M507.1162155350147 354.05572196184784C516.6775157638305 396.22272655488024 540.7568899305968 463.9756188195713 509.4710753094837 493.81975629927945C478.1852606883706 523.6638937789876 405.6501761080401 523.4819110449871 356.94430535367155 497.30758186444666C308.238434599303 471.13325268390633 269.3227764088828 409.98742517329634 275.6828956885148 368.18297623268535C282.04301496814685 326.37852729207435 348.3283073703529 312.63890236200604 387.4728778959055 296.64622694951396C426.6174484214582 280.65355153702194 438.6511388696867 279.4578227918207 463.5768342111678 291.41813425272363C488.50252955264887 303.3784457136265 497.55491530619884 311.88871736881543 507.1162155350147 354.05572196184784C516.6775157638305 396.22272655488024 540.7568899305968 463.9756188195713 509.4710753094837 493.81975629927945 "></path><path d="M496.4045924556343 358.650151291542C505.0097626615685 396.60045542527115 526.6811994116582 457.5780584634931 498.52396625265646 484.4377821952304C470.3667330936546 511.2975059269677 405.0851569713572 511.1337214663672 361.2498732924255 487.57682520388084C317.4145896134938 464.0199289413946 282.3904972421156 408.9886841818456 288.1146045937844 371.3646801352957C293.8387119454532 333.74067608874583 353.4954751074387 321.3750136516843 388.72558858043607 306.9816057804415C423.95570205343347 292.58819790919864 434.78602345683913 291.51204203851756 457.2191492641721 302.27632235333016C479.6522750715051 313.04060266814275 487.7994222497001 320.6998471578128 496.4045924556343 358.650151291542C505.0097626615685 396.60045542527115 526.6811994116582 457.5780584634931 498.52396625265646 484.4377821952304 "></path><path d="M485.69299989383205 363.244565362447C493.3420400768847 396.97816903687294 512.6055394102978 451.18048284862584 487.57688771340736 475.0557928323923C462.54823601651685 498.9311028161587 404.5201683522524 498.78551662895836 365.55547174875755 477.8460532845261C326.5907751452627 456.9065899400938 295.45824859292657 407.9899279316058 300.54634401663213 374.546368779117C305.63443944033776 341.10280962662824 358.6626733621026 330.11110968257356 389.97832978254473 317.3169693525799C421.29398620298684 304.5228290225863 430.9209385615697 303.56624602642535 450.8614948347546 313.1344951951476C470.8020511079394 322.70274436386995 478.0439597107794 329.5109616880211 485.69299989383205 363.244565362447C493.3420400768847 396.97816903687294 512.6055394102978 451.18048284862584 487.57688771340736 475.0557928323923 "></path><path d="M474.98134629687354 367.8390099509302C481.6742564570446 397.3559131660529 498.52981837378104 444.78293775133665 476.6297481390019 465.6738339871323C454.72967790422274 486.564730222928 403.9551186979914 486.43734230912764 369.86100916993337 468.11531188274944C335.7668996418754 449.7932814563711 308.5259389085812 406.99120219894417 312.97802240432367 377.72808794051645C317.43010590006605 348.4649736820888 363.82981058161033 338.84723623104094 391.23100994949715 327.6523634422965C418.632209317384 316.4574906535521 427.05579263114396 315.62048053191126 444.5037793701807 323.99269855454327C461.9517661092175 332.3649165771753 468.2884361367025 338.32210673580755 474.98134629687354 367.8390099509302C481.6742564570446 397.3559131660529 498.52981837378104 444.78293775133665 476.6297481390019 465.6738339871323 "></path><path d="M464.26972321749315 372.43342402183526C470.00650335478264 397.7336267776547 484.45412785484245 438.3853621364694 465.68263908217466 456.29184462429424C446.91115030950675 474.19832711211916 403.3900995613085 474.0891374717188 374.1665771086873 458.38453996339456C344.9430546560662 442.6799424550704 321.59365974181407 405.99244594870436 325.40973130959327 380.9097765843378C329.2258028773725 355.8271072199712 368.9969783186961 347.5833322619302 392.4837206340277 337.98772701443494C415.9704629493593 328.39212176693974 423.1906772182964 327.674684519819 438.14609442318505 334.85087139636073C453.1015116280737 342.0270582729025 458.5329430802037 347.1332212660158 464.26972321749315 372.43342402183526C470.00650335478264 397.7336267776547 484.45412785484245 438.3853621364694 465.68263908217466 456.29184462429424 "></path><path d="M453.5581153969019 377.0278533515294C458.33876551130976 398.1113556480456 470.37845259469293 431.9878017803911 454.7355452841364 446.9098705202452C439.0926379735798 461.83193926009926 402.8250956834146 461.740947893099 378.4721603062303 448.6537833028288C354.119224929046 435.56661871255864 334.6613958338359 404.9937049572536 337.84145547365193 384.09148048694817C341.02151511346796 363.1892560166427 374.164161314571 356.31944355160846 393.7364465773473 348.3231058453625C413.30873184012364 340.32676813911644 419.3255770642379 339.7289037665158 431.78842473497843 345.70905949696726C444.25127240571896 351.68921522741874 448.77746528249395 355.9443510550132 453.5581153969019 377.0278533515294C458.33876551130976 398.1113556480456 470.37845259469293 431.9878017803911 454.7355452841364 446.9098705202452 "></path><path d="M442.8464923175215 381.6222826812235C446.6710124090478 398.48908451843647 456.30276207575434 425.5902414243129 443.78843622730915 437.52789641619614C431.2741103788639 449.46555140807936 402.2600765467317 449.3927583144792 382.77772824498425 438.92302664226304C363.2953799432368 428.4532949700469 347.72911666706875 403.9949639658029 350.27316437892154 387.27318438955854C352.8172120907744 370.5514048133141 379.3313290516568 365.0555548412868 394.98915726187784 358.65848467628996C410.6469854720989 352.26141451129314 415.46046165139035 351.7831230132127 425.43073978798276 356.56724759757384C435.40101792457517 361.351372181935 439.02197222599517 364.75548084401055 442.8464923175215 381.6222826812235C446.6710124090478 398.48908451843647 456.30276207575434 425.5902414243129 443.78843622730915 437.52789641619614 "></path><path d="M432.1348692381411 386.21671201091766C435.0032593067858 398.8668133888274 442.22707155681576 419.1926810682347 432.84132717048186 428.14592231214715C423.4555827841479 437.0991635560596 401.6950574100488 437.0445687358594 387.0832961837382 429.1922699816973C372.4715349574276 421.33997122753516 360.79683750030154 402.9962229743522 362.70487328419114 390.4548882921689C364.61290906808074 377.91355360998557 384.4984967887426 373.7916661309651 396.2418679464084 368.9938635072175C407.9852391040742 364.19606088346984 411.59534623854273 363.8373422599095 419.073054840987 367.42543569818037C426.5507634434314 371.0135291364512 429.2664791694964 373.56661063300794 432.1348692381411 386.21671201091766C435.0032593067858 398.8668133888274 442.22707155681576 419.1926810682347 432.84132717048186 428.14592231214715 "></path><path d="M421.4232461587607 390.81114134061175C423.3355062045239 399.24454225921824 428.1513810378772 412.79512071215646 421.8942181136546 418.7639482080981C415.6370551894319 424.7327757040397 401.1300382733658 424.69637915723956 391.3888641224921 419.4615133211315C381.64768997161843 414.2266474850235 373.8645583335344 401.99748198290143 375.1365821894608 393.63659219477927C376.40860604538716 385.27570240665705 389.6656645258284 382.5277774206434 397.4945786309389 379.329242338145C405.32349273604945 376.1307072556466 407.7302308256952 375.8915615066063 412.71536989399135 378.2836237987869C417.7005089622876 380.6756860909675 419.51098611299756 382.3777404220053 421.4232461587607 390.81114134061175C423.3355062045239 399.24454225921824 428.1513810378772 412.79512071215646 421.8942181136546 418.7639482080981 "></path><path d="M410.7116230793804 395.4055706703059C411.66775310226194 399.62227112960915 414.0756905189386 406.3975603560782 410.9471090568273 409.38197410404905C407.818527594716 412.36638785201984 400.5650191366829 412.3481895786198 395.69443206124606 409.73075666056576C390.8238449858092 407.11332374251174 386.93227916676716 400.99874099145075 387.5682910947304 396.81829609738963C388.2043030226936 392.6378512033285 394.8328322629142 391.2638887103217 398.74728931546946 389.6646211690725C402.66174636802475 388.0653536278233 403.86511541284756 387.94578075330315 406.3576849469957 389.1418118993935C408.8502544811438 390.33784304548374 409.7554930564988 391.18887021100267 410.7116230793804 395.4055706703059C411.66775310226194 399.62227112960915 414.0756905189386 406.3975603560782 410.9471090568273 409.38197410404905 "></path></g></svg>