<svg width="100" height="100" viewBox="0 0 100 100" fill="none" xmlns="http://www.w3.org/2000/svg">
<path d="M40.22 11.5303H18.52C16.6635 11.5303 14.883 12.2678 13.5703 13.5805C12.2575 14.8933 11.52 16.6738 11.52 18.5303V40.2203C11.52 42.0768 12.2575 43.8573 13.5703 45.17C14.883 46.4828 16.6635 47.2203 18.52 47.2203H40.22C42.0765 47.2203 43.857 46.4828 45.1698 45.17C46.4825 43.8573 47.22 42.0768 47.22 40.2203V18.5303C47.22 16.6738 46.4825 14.8933 45.1698 13.5805C43.857 12.2678 42.0765 11.5303 40.22 11.5303ZM39.22 39.2203H19.52V19.5303H39.22V39.2203Z" fill="black"/>
<path d="M81.4798 11.5303H59.7798C57.9233 11.5303 56.1428 12.2678 54.83 13.5805C53.5173 14.8933 52.7798 16.6738 52.7798 18.5303V40.2203C52.7798 42.0768 53.5173 43.8573 54.83 45.17C56.1428 46.4828 57.9233 47.2203 59.7798 47.2203H81.4798C83.3363 47.2203 85.1168 46.4828 86.4295 45.17C87.7423 43.8573 88.4798 42.0768 88.4798 40.2203V18.5303C88.4798 16.6738 87.7423 14.8933 86.4295 13.5805C85.1168 12.2678 83.3363 11.5303 81.4798 11.5303ZM80.4798 39.2203H60.7798V19.5303H80.4798V39.2203Z" fill="black"/>
<path d="M40.22 52.7803H18.52C16.6635 52.7803 14.883 53.5178 13.5703 54.8305C12.2575 56.1433 11.52 57.9238 11.52 59.7803V81.4703C11.52 83.3268 12.2575 85.1073 13.5703 86.42C14.883 87.7328 16.6635 88.4703 18.52 88.4703H40.22C42.0765 88.4703 43.857 87.7328 45.1698 86.42C46.4825 85.1073 47.22 83.3268 47.22 81.4703V59.7803C47.22 57.9238 46.4825 56.1433 45.1698 54.8305C43.857 53.5178 42.0765 52.7803 40.22 52.7803ZM39.22 80.4703H19.52V60.7803H39.22V80.4703Z" fill="black"/>
<path d="M81.4798 52.7803H59.7798C57.9233 52.7803 56.1428 53.5178 54.83 54.8305C53.5173 56.1433 52.7798 57.9238 52.7798 59.7803V81.4703C52.7798 83.3268 53.5173 85.1073 54.83 86.42C56.1428 87.7328 57.9233 88.4703 59.7798 88.4703H81.4798C83.3363 88.4703 85.1168 87.7328 86.4295 86.42C87.7423 85.1073 88.4798 83.3268 88.4798 81.4703V59.7803C88.4798 57.9238 87.7423 56.1433 86.4295 54.8305C85.1168 53.5178 83.3363 52.7803 81.4798 52.7803ZM80.4798 80.4703H60.7798V60.7803H80.4798V80.4703Z" fill="black"/>
</svg>
